<svg width="607" height="402" viewBox="0 0 607 402" fill="none" xmlns="http://www.w3.org/2000/svg">
<path d="M1.00646 38.5814C34.8156 34.6837 99.3507 47.0566 87.0177 127.729C71.6014 228.57 77.798 231.139 220.216 239.1C362.634 247.061 377.985 308.129 370.513 351.264C363.041 394.4 250.041 398.391 254.979 305.31C259.918 212.228 465.637 165.582 566.717 311.808" stroke="url(#paint0_linear_15_2)"/>
<path fill-rule="evenodd" clip-rule="evenodd" d="M565.325 347.194L562.338 346.915L564.863 319.901C564.464 319.79 564.077 319.652 563.705 319.488L548.587 340.607L546.148 338.861L561.217 317.81C560.894 317.496 560.596 317.157 560.327 316.796L536.378 328.418L535.069 325.719L558.981 314.114C558.767 313.389 558.648 312.627 558.637 311.842L531.704 308.975L532.022 305.992L559.12 308.877C559.283 308.415 559.484 307.972 559.719 307.553L537.208 291.884L538.921 289.421L561.634 305.23C561.981 304.935 562.351 304.668 562.742 304.432L550.274 279.194L552.964 277.866L565.556 303.355C565.84 303.301 566.129 303.262 566.421 303.237L569.04 275.228L572.027 275.507L569.408 303.516C569.967 303.671 570.501 303.88 571.005 304.137L588.058 280.316L590.497 282.062L573.393 305.955C573.636 306.219 573.862 306.499 574.07 306.792L599.844 294.284L601.154 296.983L575.348 309.506C575.446 309.872 575.521 310.246 575.569 310.628L603.617 313.613L603.3 316.597L575.418 313.629C575.339 313.968 575.241 314.299 575.124 314.62L598.016 330.554L596.302 333.016L573.608 317.22C573.36 317.511 573.093 317.784 572.81 318.038L584.854 342.418L582.164 343.747L570.246 319.621C569.491 319.919 568.686 320.111 567.85 320.18L565.325 347.194Z" fill="#83A17D"/>
<defs>
<linearGradient id="paint0_linear_15_2" x1="677.91" y1="409.715" x2="64.3186" y2="83.2372" gradientUnits="userSpaceOnUse">
<stop/>
<stop offset="0.553176" stop-color="white"/>
<stop offset="1" stop-opacity="0"/>
</linearGradient>
</defs>
</svg>
